<?xml version="1.0" encoding="UTF-8"?>
<svg width="98px" height="154px" viewBox="0 0 98 154" version="1.1" xmlns="http://www.w3.org/2000/svg" xmlns:xlink="http://www.w3.org/1999/xlink">
    <title>Group</title>
    <g id="Logo" stroke="none" stroke-width="1" fill="none" fill-rule="evenodd">
        <g id="Desktop-HD" transform="translate(1.000000, -551.000000)">
            <g id="Group" transform="translate(-0.403192, 553.000000)">
                <path d="M57.3096069,54.0287766 C68.1113002,53.1589625 79.7075792,52.7801445 89.9606219,53.1288961 C90.4537492,53.1456695 90.9498621,53.1643332 91.4486065,53.1850648 C91.2506018,53.6202447 91.0476309,54.0706053 90.8396816,54.5361558 C89.1471622,58.3253159 87.9839754,61.1973522 87.3507503,63.1604268 C87.1239472,63.8635439 86.9663813,64.4392028 86.8846875,64.8889524 L86.882,64.902 L86.9084779,64.8965101 C88.7571731,64.4297703 93.8047786,60.5227759 101.665133,54.5695415 L102.074209,54.2597979 C110.338499,54.9826186 116.130843,56.5821659 118.907268,58.8834753 C120.429182,60.1449522 121.126783,61.6119124 120.981822,63.2531293 C120.855474,64.6836066 120.042405,66.3118632 118.301994,68.1082019 C112.012879,74.5994171 105.663861,79.7873016 99.3345336,83.8725015 C84.3139547,81.5934459 75.9051424,80.2676273 74.0983707,80.7880848 C74.432512,81.3710548 74.9678896,82.035517 75.7308422,82.866657 C77.3679994,84.6501319 80.0095905,87.1302897 83.6527112,90.3100005 C84.0803065,90.6832051 84.4964878,91.0440426 84.9006395,91.3925727 C84.3882143,91.5990112 83.871074,91.8010698 83.3491766,91.9986326 C67.6019054,97.9597161 52.3895623,97.9856876 38.9524944,95.2321845 C35.6185504,89.7585146 33.5242046,85.9509244 32.4214591,83.9678816 L32.401,83.931 L32.3969032,84.1116946 C32.3542078,85.8366054 32.3463361,88.3928873 32.3729641,91.7805358 L32.377217,92.2949184 C32.3812148,92.7562422 32.3855671,93.2028701 32.3869088,93.6346296 C31.9567342,93.5139758 31.525822,93.3900295 31.0942821,93.2627119 C11.7234595,87.5477198 -2.89767362,76.8142118 -8.30660832,72.4476608 C-11.8326018,72.3991272 -16.4481383,72.178279 -22.1502388,71.7856496 C-22.6710029,71.7497658 -23.1334428,71.5153722 -23.4656907,71.1594501 C-23.7979426,70.8035238 -24,70.3260679 -24,69.8040634 C-24,69.2766583 -23.7894089,68.7975191 -23.4470006,68.4472322 C-23.1045924,68.0969453 -22.6303669,67.8755108 -22.1030825,67.8635148 L-22.1030825,67.8635148 L-7.14264209,67.5233919 C-0.0345341907,64.7480955 18.7981674,58.2802282 47.1775041,55.0123611 C47.5750821,54.9665802 47.9749747,54.9214419 48.3770502,54.8769611 L48.3770502,54.8769611 L49.5934065,54.7423979 L49.4829239,55.9611774 C49.1766565,59.3397407 48.9643179,61.873444 48.8460395,63.5624243 C48.798007,64.248313 48.7655802,64.7921969 48.7491383,65.1940953 C49.1508457,65.3881792 51.9440107,61.966306 56.1485811,55.7599048 C56.5546047,55.16057 56.9413946,54.5830879 57.3096069,54.0287766 Z" id="Combined-Shape" stroke="#0C5317" stroke-width="2" transform="translate(48.500000, 75.000000) scale(-1, 1) rotate(-100.000000) translate(-48.500000, -75.000000) "></path>
                <path d="M74.9266271,54.1283181 L74.9017459,54.1836235 C71.5001314,61.7994511 70.2257407,65.7574932 71.0785738,66.0577497 C72.0189965,66.388844 77.5520586,62.7219683 87.6777599,55.0571227 C101.396567,56.7277242 109.258537,60.5231299 102.583796,67.4123638 C96.3527492,73.8436445 90.0632124,78.9847771 83.7922415,83.0323114 C67.5079554,80.2731953 58.9346314,79.3488944 58.0724252,80.253854 C57.3271679,81.0360657 60.6347416,84.6392472 67.9951465,91.0633985 C52.4443564,96.9501047 37.4219545,96.9715455 24.1532413,94.2525414 C19.3586535,85.7159489 16.8562721,81.4302191 16.6473338,81.3922808 C16.403861,81.3480719 16.3138346,84.9851729 16.3772546,92.3035839 C-3.1539526,86.5412733 -17.8132149,75.6310838 -22.9459212,71.4520079 C-26.4999337,71.4139148 -31.2128905,71.1921096 -37.0814957,70.7880152 C-37.5986693,70.7523788 -38,70.3224634 -38,69.8040634 C-38,69.2926756 -37.5916091,68.8748878 -37.0803535,68.8632565 L-21.942969,68.5191108 C-14.9972247,65.7936082 3.82184151,59.28411 32.2918978,56.0057966 C32.6880053,55.960185 33.086419,55.9152137 33.4870075,55.8708974 C32.872828,62.6461667 32.6356529,66.0329466 32.7754131,66.0322491 C32.9133638,66.0315607 35.4284517,62.4204894 40.3206769,55.1990353 C51.659849,54.2104285 64.0514579,53.7584052 74.9266271,54.1283181 Z" id="Combined-Shape" fill="#0C5317" opacity="0.299200149" transform="translate(33.500000, 75.000000) scale(-1, 1) rotate(-100.000000) translate(-33.500000, -75.000000) "></path>
                <path d="M104.926627,54.1283181 L104.901746,54.1836235 C101.500131,61.7994511 100.225741,65.7574932 101.078574,66.0577497 C102.018997,66.388844 107.552059,62.7219683 117.67776,55.0571227 C131.396567,56.7277242 139.258537,60.5231299 132.583796,67.4123638 C126.352749,73.8436445 120.063212,78.9847771 113.792241,83.0323114 C97.5079554,80.2731953 88.9346314,79.3488944 88.0724252,80.253854 C87.3271679,81.0360657 90.6347416,84.6392472 97.9951465,91.0633985 C82.4443564,96.9501047 67.4219545,96.9715455 54.1532413,94.2525414 C49.3586535,85.7159489 46.8562721,81.4302191 46.6473338,81.3922808 C46.403861,81.3480719 46.3138346,84.9851729 46.3772546,92.3035839 C26.8460474,86.5412733 12.1867851,75.6310838 7.05407878,71.4520079 C3.50006632,71.4139148 -1.2128905,71.1921096 -7.08149567,70.7880152 C-7.59866929,70.7523788 -8,70.3224634 -8,69.8040634 C-8,69.2926756 -7.59160909,68.8748878 -7.08035352,68.8632565 L8.05703102,68.5191108 C15.0027753,65.7936082 33.8218415,59.28411 62.2918978,56.0057966 C62.6880053,55.960185 63.086419,55.9152137 63.4870075,55.8708974 C62.872828,62.6461667 62.6356529,66.0329466 62.7754131,66.0322491 C62.9133638,66.0315607 65.4284517,62.4204894 70.3206769,55.1990353 C81.659849,54.2104285 94.0514579,53.7584052 104.926627,54.1283181 Z" id="Combined-Shape" fill="#0C5317" opacity="0.147321429" transform="translate(63.500000, 75.000000) scale(-1, 1) rotate(-100.000000) translate(-63.500000, -75.000000) "></path>
            </g>
        </g>
    </g>
</svg>